<svg width="800" height="600" xmlns="http://www.w3.org/2000/svg">

 <g>
  <title>Layer 1</title>
  <line stroke-width="5" x2="490" stroke-linecap="undefined" stroke-linejoin="undefined" id="svg_2" y2="142" y1="95" x1="530" stroke="#000" fill="none"/>
  <ellipse stroke-width="5" ry="11" rx="11" id="svg_3" cy="152" cx="481" stroke="#000" fill="#fff"/>
  <ellipse stroke-width="5" ry="11" rx="11" id="svg_8" cy="234" cx="492" stroke="#000" fill="#fff"/>
  <g transform="rotate(-46.4243 523 154)" id="svg_17">
   <line stroke-width="5" x2="513" stroke-linecap="undefined" stroke-linejoin="undefined" id="svg_13" y2="167" y1="120" x1="553" stroke="#000" fill="none"/>
   <ellipse stroke-width="5" ry="11" rx="11" id="svg_14" cy="177" cx="504" stroke="#000" fill="#fff"/>
   <line stroke-width="5" x2="513" stroke-linecap="undefined" stroke-linejoin="undefined" id="svg_15" y2="167" y1="120" x1="553" stroke="#000" fill="none"/>
   <ellipse stroke-width="5" ry="11" rx="11" id="svg_16" cy="177" cx="504" stroke="#000" fill="#fff"/>
  </g>
  <g transform="rotate(40.8728 427 166)" id="svg_22">
   <line stroke-width="5" x2="417" stroke-linecap="undefined" stroke-linejoin="undefined" id="svg_18" y2="179" y1="132" x1="457" stroke="#000" fill="none"/>
   <ellipse stroke-width="5" ry="11" rx="11" id="svg_19" cy="189" cx="408" stroke="#000" fill="#fff"/>
   <line stroke-width="5" x2="417" stroke-linecap="undefined" stroke-linejoin="undefined" id="svg_20" y2="179" y1="132" x1="457" stroke="#000" fill="none"/>
   <ellipse stroke-width="5" ry="11" rx="11" id="svg_21" cy="189" cx="408" stroke="#000" fill="#fff"/>
  </g>
  <ellipse stroke-width="5" ry="11" rx="11" id="svg_23" cy="250" cx="347" stroke="#000" fill="#fff"/>
  <ellipse stroke-width="5" ry="11" rx="11" id="svg_24" cy="320" cx="376" stroke="#000" fill="#fff"/>
  <ellipse stroke-width="5" ry="11" rx="11" id="svg_25" cy="331" cx="533" stroke="#000" fill="#fff"/>
  <line id="svg_26" y2="240" x2="347" y1="180" x1="387" stroke-width="5" stroke="#000" fill="none"/>
  <line id="svg_27" y2="311" x2="373" y1="258" x1="353" stroke-width="5" stroke="#000" fill="none"/>
  <line id="svg_28" y2="224" x2="497" y1="192" x1="520" stroke-width="5" stroke="#000" fill="none"/>
  <line id="svg_29" y2="321" x2="529" y1="242" x1="497" stroke-width="5" stroke="#000" fill="none"/>
  <line id="svg_32" y2="96" x2="379" y1="126" x1="503" stroke-width="5" stroke="#000" fill="none"/>
  <ellipse stroke="#000" stroke-width="5" ry="11" rx="11" id="svg_33" cy="95" cx="368" fill="#fff"/>
  <line id="svg_34" y2="135" x2="280" y1="101" x1="359" stroke-width="5" stroke="#000" fill="none"/>
  <ellipse stroke="#000" stroke-width="5" ry="11" rx="11" id="svg_35" cy="136" cx="275" fill="#fff"/>
  <line id="svg_36" y2="92" x2="211" y1="135" x1="263" stroke-width="5" stroke="#000" fill="none"/>
  <ellipse stroke="#000" stroke-width="5" ry="11" rx="11" id="svg_37" cy="83" cx="206" fill="#fff"/>
 </g>
</svg>